<svg xmlns="http://www.w3.org/2000/svg" viewBox="0 0 1600 900" width="1600" height="900" role="img" aria-label="Echoes of Decay 展示图 04 占位图">
  <defs>
    <linearGradient id="bg" x1="0" y1="0" x2="1" y2="1">
      <stop offset="0" stop-color="#0a0c11"/>
      <stop offset="0.55" stop-color="#101419"/>
      <stop offset="1" stop-color="#0b0e13"/>
    </linearGradient>
    <radialGradient id="glow" cx="0.18" cy="0.12" r="0.95">
      <stop offset="0" stop-color="#ff5c39" stop-opacity="0.55"/>
      <stop offset="1" stop-color="#ff5c39" stop-opacity="0"/>
    </radialGradient>
    <radialGradient id="glow2" cx="0.92" cy="0.95" r="0.7">
      <stop offset="0" stop-color="#6f7bff" stop-opacity="0.35"/>
      <stop offset="1" stop-color="#6f7bff" stop-opacity="0"/>
    </radialGradient>
    <pattern id="grid" width="64" height="64" patternUnits="userSpaceOnUse">
      <path d="M64 0H0V64" fill="none" stroke="#ffffff" stroke-opacity="0.045" stroke-width="1"/>
    </pattern>
  </defs>
  <rect width="1600" height="900" fill="url(#bg)"/>
  <rect width="1600" height="900" fill="url(#grid)"/>
  <rect width="1600" height="900" fill="url(#glow)"/>
  <g>
    <rect x="1183" y="136" width="174" height="174" rx="18" fill="none" stroke="#ff5c39" stroke-opacity="0.140" stroke-width="2" transform="rotate(28 1183 136)"/>
    <polygon points="321,621 448,367 575,621" fill="none" stroke="#ff5c39" stroke-opacity="0.064" stroke-width="2"/>
    <polygon points="819,712 876,597 934,712" fill="none" stroke="#ff5c39" stroke-opacity="0.108" stroke-width="2"/>
    <rect x="1317" y="198" width="196" height="196" rx="18" fill="none" stroke="#ff5c39" stroke-opacity="0.152" stroke-width="2" transform="rotate(64 1317 198)"/>
    <polygon points="455,705 593,429 731,705" fill="none" stroke="#ff5c39" stroke-opacity="0.076" stroke-width="2"/>
  </g>
  <rect x="70" y="70" width="1460" height="760" rx="28" fill="none" stroke="#ffffff" stroke-opacity="0.14" stroke-width="2"/>
  <rect x="70" y="70" width="1460" height="64" rx="28" fill="#ffffff" fill-opacity="0.05"/>
  <circle cx="112" cy="102" r="8" fill="#ff5c39"/>
  <circle cx="140" cy="102" r="8" fill="#ffffff" fill-opacity="0.24"/>
  <circle cx="168" cy="102" r="8" fill="#ffffff" fill-opacity="0.24"/>
  <text x="1488" y="109" text-anchor="end" font-family="Inter, 'Segoe UI', 'PingFang SC', 'Microsoft YaHei', system-ui, sans-serif" font-size="22" letter-spacing="4" fill="#ffffff" fill-opacity="0.55">SCREENSHOT 04 / 04</text>
  <text x="140" y="456" font-family="Inter, 'Segoe UI', 'PingFang SC', 'Microsoft YaHei', system-ui, sans-serif" font-size="26" letter-spacing="6" fill="#ff5c39">ECHOES OF DECAY</text>
  <text x="140" y="516" font-family="Inter, 'Segoe UI', 'PingFang SC', 'Microsoft YaHei', system-ui, sans-serif" font-size="58" font-weight="700" fill="#f2f5f9">展示图 04 · 占位</text>
  <text x="140" y="572" font-family="Inter, 'Segoe UI', 'PingFang SC', 'Microsoft YaHei', system-ui, sans-serif" font-size="24" fill="#98a3b3">把真实截图放到 public/images/ 下的同名路径即可自动替换</text>
  <g opacity="0.5" font-family="Inter, 'Segoe UI', 'PingFang SC', 'Microsoft YaHei', system-ui, sans-serif" font-size="18" fill="#98a3b3">
    <rect x="140" y="680" width="1040" height="14" rx="7" fill="#ffffff" fill-opacity="0.08"/>
    <rect x="140" y="710" width="900" height="14" rx="7" fill="#ffffff" fill-opacity="0.06"/>
    <rect x="140" y="740" width="960" height="14" rx="7" fill="#ffffff" fill-opacity="0.05"/>
  </g>
</svg>
