<svg xmlns="http://www.w3.org/2000/svg" viewBox="0 0 1600 1000" width="1600" height="1000" role="img" aria-label="Skyward Tactics 封面占位图">
  <defs>
    <linearGradient id="bg" x1="0" y1="0" x2="1" y2="1">
      <stop offset="0" stop-color="#0a0c11"/>
      <stop offset="0.55" stop-color="#101419"/>
      <stop offset="1" stop-color="#0b0e13"/>
    </linearGradient>
    <radialGradient id="glow" cx="0.18" cy="0.12" r="0.95">
      <stop offset="0" stop-color="#a78bfa" stop-opacity="0.55"/>
      <stop offset="1" stop-color="#a78bfa" stop-opacity="0"/>
    </radialGradient>
    <radialGradient id="glow2" cx="0.92" cy="0.95" r="0.7">
      <stop offset="0" stop-color="#6f7bff" stop-opacity="0.35"/>
      <stop offset="1" stop-color="#6f7bff" stop-opacity="0"/>
    </radialGradient>
    <pattern id="grid" width="64" height="64" patternUnits="userSpaceOnUse">
      <path d="M64 0H0V64" fill="none" stroke="#ffffff" stroke-opacity="0.045" stroke-width="1"/>
    </pattern>
  </defs>
  <rect width="1600" height="1000" fill="url(#bg)"/>
  <rect width="1600" height="1000" fill="url(#grid)"/>
  <rect width="1600" height="1000" fill="url(#glow)"/>
  <rect width="1600" height="1000" fill="url(#glow2)"/>
  <g>
    <rect x="1449" y="680" width="243" height="243" rx="18" fill="none" stroke="#a78bfa" stroke-opacity="0.125" stroke-width="2" transform="rotate(185 1449 680)"/>
    <polygon points="625,366 680,256 735,366" fill="none" stroke="#a78bfa" stroke-opacity="0.053" stroke-width="2"/>
    <polygon points="1161,728 1260,532 1358,728" fill="none" stroke="#a78bfa" stroke-opacity="0.100" stroke-width="2"/>
    <rect x="337" y="108" width="283" height="283" rx="18" fill="none" stroke="#a78bfa" stroke-opacity="0.147" stroke-width="2" transform="rotate(250 337 108)"/>
    <polygon points="874,534 949,384 1024,534" fill="none" stroke="#a78bfa" stroke-opacity="0.075" stroke-width="2"/>
  </g>
  <text x="1500" y="880" text-anchor="end" font-family="Inter, 'Segoe UI', 'PingFang SC', 'Microsoft YaHei', system-ui, sans-serif" font-size="420" font-weight="800" fill="#ffffff" fill-opacity="0.05">21</text>
  <text x="110" y="768" font-family="Inter, 'Segoe UI', 'PingFang SC', 'Microsoft YaHei', system-ui, sans-serif" font-size="24" letter-spacing="8" fill="#a78bfa">GAME PROJECT</text>
  <text x="110" y="860" font-family="Inter, 'Segoe UI', 'PingFang SC', 'Microsoft YaHei', system-ui, sans-serif" font-size="92" font-weight="800" fill="#f2f5f9">Skyward Tactics</text>
  <text x="110" y="916" font-family="Inter, 'Segoe UI', 'PingFang SC', 'Microsoft YaHei', system-ui, sans-serif" font-size="30" fill="#98a3b3">空中舰队战棋 · 回合制</text>
  <g font-family="Inter, 'Segoe UI', 'PingFang SC', 'Microsoft YaHei', system-ui, sans-serif" font-size="20" fill="#ffffff" fill-opacity="0.5">
    <rect x="110" y="110" width="286" height="44" rx="22" fill="#ffffff" fill-opacity="0.06" stroke="#a78bfa" stroke-opacity="0.5"/>
    <text x="136" y="139">占位封面 · 替换为真实截图</text>
  </g>
</svg>
